<svg xmlns="http://www.w3.org/2000/svg" xmlns:xlink="http://www.w3.org/1999/xlink" viewBox="0 0 20 20">
<path id="notificationsDisplay" fill="#d8d8d8" fill-rule="nonzero" d="M14.428,9.562c0.034,2.859 0.934,4.364 1.457,4.364c0.578,0 1.048,0.488 1.048,1.089c0,0.601 -0.47,1.088 -1.048,1.088l-12.636,0c-0.579,0 -1.049,-0.487 -1.049,-1.088c0,-0.601 0.47,-1.089 1.049,-1.089c0.566,0 1.509,-1.587 1.509,-4.516l-0,-1.352c-0,-2.208 1.377,-4.085 3.287,-4.755c0.227,-0.08 0.703,-0.216 0.703,-0.687l0,-0.24c0,-0.483 0.378,-0.876 0.844,-0.876c0.466,0 0.844,0.393 0.844,0.876l0,0.243c0,0.454 0.483,0.606 0.714,0.688c0.114,0.04 0.227,0.085 0.337,0.134c-0.286,0.576 -0.447,1.226 -0.447,1.912c-0,2.062 1.452,3.787 3.388,4.209Zm-2.961,7.351c0.017,0.074 0.026,0.15 0.026,0.227c0,0.751 -0.863,1.36 -1.926,1.36c-1.064,-0 -1.927,-0.609 -1.927,-1.36c-0,-0.077 0.009,-0.153 0.027,-0.227l3.8,0Zm3.88,-14.733c1.751,0 3.173,1.422 3.173,3.173c-0,1.752 -1.422,3.174 -3.173,3.174c-1.752,-0 -3.174,-1.422 -3.174,-3.174c0,-1.751 1.422,-3.173 3.174,-3.173Zm-0,1.133c-1.126,0 -2.04,0.914 -2.04,2.04c-0,1.126 0.914,2.04 2.04,2.04c1.126,0 2.04,-0.914 2.04,-2.04c-0,-1.126 -0.914,-2.04 -2.04,-2.04Z"/>
</svg>